<?xml version="1.0" standalone="no"?>
<!DOCTYPE svg PUBLIC "-//W3C//DTD SVG 20010904//EN"
 "http://www.w3.org/TR/2001/REC-SVG-20010904/DTD/svg10.dtd">
<svg version="1.0" xmlns="http://www.w3.org/2000/svg"
 width="358.000000pt" height="358.000000pt" viewBox="0 0 358.000000 358.000000"
 preserveAspectRatio="xMidYMid meet">
<metadata>
Created by potrace 1.14, written by Peter Selinger 2001-2017
</metadata>
<g transform="translate(0.000000,358.000000) scale(0.100000,-0.100000)"
fill="#000000" stroke="none">
<path d="M2053 3431 c-236 -119 -435 -295 -610 -539 -34 -48 -71 -103 -81
-122 -11 -19 -36 -65 -56 -101 -82 -150 -154 -350 -193 -538 -23 -110 -26
-150 -27 -311 0 -106 5 -204 12 -230 6 -24 9 -46 7 -48 -2 -2 -20 4 -39 13
-101 48 -240 277 -306 508 -13 42 -27 77 -31 77 -5 0 -9 -4 -9 -10 0 -5 -13
-30 -29 -55 -48 -76 -109 -226 -136 -331 -60 -242 -53 -453 24 -699 22 -72 79
-204 98 -226 7 -8 13 -19 13 -23 0 -13 81 -129 134 -191 125 -149 266 -259
427 -334 180 -84 315 -115 509 -115 207 0 362 38 565 140 427 212 678 559 730
1004 6 57 7 226 1 270 -2 14 -7 46 -10 71 -32 234 -161 499 -323 664 -89 91
-226 195 -239 182 -3 -3 -1 -31 5 -63 11 -57 8 -257 -4 -324 -12 -66 -57 -204
-87 -268 -62 -132 -169 -261 -256 -310 l-39 -22 -40 58 c-93 131 -166 299
-212 480 -20 76 -23 97 -40 237 -9 75 -7 359 2 391 4 10 9 40 12 65 26 235
164 550 308 706 22 24 35 43 29 43 -6 0 -54 -22 -109 -49z"/>
<path d="M2610 2858 c0 -4 9 -12 20 -18 17 -9 20 -8 20 8 0 11 -7 18 -20 18
-11 0 -20 -4 -20 -8z"/>
<path d="M3210 2220 c0 -5 5 -10 10 -10 6 0 10 5 10 10 0 6 -4 10 -10 10 -5 0
-10 -4 -10 -10z"/>
<path d="M2805 180 c-3 -5 1 -10 9 -10 9 0 16 5 16 10 0 6 -4 10 -9 10 -6 0
-13 -4 -16 -10z"/>
</g>
</svg>
